<svg xmlns="http://www.w3.org/2000/svg" viewBox="0 0 1600 900" preserveAspectRatio="xMidYMid slice">
  <g fill="none" stroke-linecap="round" stroke-linejoin="round">
    <g stroke="#6a8aaa" stroke-width="0.9">
  <path d="M1454,0L1408,19L1328,64L1272,88L1160,125L1104,135L1080,133L1056,127L968,84L808,32L745,0 M0,487L80,559L120,588L231,640L288,671L320,681L352,678L416,656L480,641L588,624L640,620L680,625L696,633L744,664L776,672L904,669L1112,658L1176,660L1216,667L1240,678L1256,695L1281,784L1304,824L1340,856L1423,904 M1608,646L1543,600L1531,584L1531,576L1534,568L1550,552L1608,508 M544,904L528,898L510,904"/>
  <path d="M1608,138L1576,106L1536,84L1488,69L1440,65L1408,68L1368,78L1136,151L1104,156L1072,155L1040,144L944,91L787,40L702,0 M1608,671L1544,635L1448,600L1438,592L1436,584L1444,568L1462,552L1536,507L1568,482L1591,456L1608,426 M0,437L96,527L144,560L208,586L312,611L376,617L456,613L536,602L648,576L688,573L728,583L808,621L864,633L928,637L1168,639L1224,643L1256,648L1274,656L1286,672L1296,760L1309,792L1326,816L1344,832L1376,853L1480,904"/>
  <path d="M0,369L18,400L51,440L104,492L144,523L176,540L208,551L312,573L400,586L472,587L536,577L648,547L696,542L720,544L744,551L816,586L848,599L912,611L1128,621L1224,622L1296,617L1320,612L1336,605L1404,552L1512,482L1538,456L1553,432L1564,392L1569,312L1596,240L1602,208L1599,184L1592,168L1568,138L1536,117L1496,103L1448,95L1408,95L1360,101L1296,116L1128,171L1096,176L1064,175L1032,165L967,120L921,96L747,40L650,0 M1608,693L1560,662L1512,643L1448,631L1392,631L1360,637L1336,656L1319,688L1312,728L1319,768L1336,800L1368,829L1408,851L1480,877L1512,886L1544,890L1576,885L1592,876L1608,862"/>
  <path d="M0,226L25,256L40,280L84,376L106,408L133,440L160,464L196,488L232,504L280,517L400,541L472,545L536,535L664,498L696,493L728,493L776,505L856,548L912,567L1000,580L1144,592L1208,590L1256,582L1296,567L1344,541L1448,469L1476,440L1490,416L1499,384L1503,328L1508,304L1542,240L1549,216L1549,200L1544,184L1532,168L1510,152L1480,139L1440,131L1400,129L1352,133L1267,152L1160,194L1120,207L1080,213L1040,212L1016,206L1000,198L947,144L926,128L896,111L848,94L616,34L456,10L359,0 M1456,664L1424,667L1400,673L1384,681L1366,696L1355,712L1349,736L1352,760L1364,784L1384,804L1408,820L1440,833L1472,841L1504,844L1528,843L1552,836L1574,824L1596,800L1605,776L1606,760L1603,744L1590,720L1564,696L1534,680L1496,668L1456,664"/>
  <path d="M23,0L0,12 M0,203L55,264L121,384L146,416L176,446L208,469L248,487L296,502L368,517L440,526L496,524L544,514L664,478L704,470L736,470L760,473L784,481L872,531L936,554L1064,573L1128,578L1176,578L1232,572L1288,553L1352,516L1423,464L1448,439L1466,408L1474,376L1476,328L1480,304L1490,280L1515,240L1523,216L1523,200L1512,180L1496,167L1472,155L1440,147L1408,143L1336,148L1264,167L1168,208L1128,221L1072,230L1024,228L1000,223L976,210L932,152L904,130L869,112L821,96L712,69L624,52L317,16L227,0 M1432,680L1408,687L1392,696L1376,712L1369,728L1367,744L1370,760L1377,776L1392,793L1432,816L1456,824L1488,829L1512,828L1536,823L1552,816L1572,800L1585,776L1586,752L1576,728L1562,712L1536,695L1504,683L1464,677L1432,680"/>
  <path d="M60,0L24,12L0,27 M0,183L79,264L96,288L144,376L169,408L193,432L224,454L264,473L312,488L368,500L440,508L496,506L544,495L680,453L720,445L752,444L792,455L880,512L912,528L944,538L1000,551L1072,561L1128,566L1176,565L1232,557L1288,536L1365,488L1396,464L1420,440L1437,416L1446,392L1450,368L1450,320L1454,296L1487,240L1496,216L1494,200L1488,190L1472,176L1455,168L1432,162L1400,158L1336,162L1280,176L1184,218L1136,234L1064,245L1000,244L968,237L948,224L938,208L921,168L896,141L859,120L816,105L728,84L632,67L320,34L165,0 M1432,694L1416,700L1400,711L1392,721L1386,736L1386,752L1391,768L1414,792L1456,810L1496,814L1520,811L1536,805L1560,784L1567,768L1565,744L1556,728L1539,712L1512,698L1488,692L1456,690L1432,694 M1568,760L1568,760"/>
  <path d="M0,144L32,182L119,256L142,288L188,368L208,393L233,416L272,440L312,455L368,469L424,475L480,473L544,459L656,416L719,384L750,360L762,344L769,296L777,280L797,264L832,244L856,226L870,208L876,184L866,160L848,144L816,128L760,112L688,99L608,90L336,72L288,61L192,28L144,18L96,15L56,23L24,38L0,61 M1368,192L1344,194L1312,201L1224,240L1170,256L1104,266L960,281L904,293L865,312L836,336L826,360L830,384L851,424L884,464L920,492L968,514L1040,532L1120,541L1184,540L1240,527L1288,504L1344,465L1377,432L1396,400L1401,368L1392,312L1393,288L1399,272L1423,232L1424,216L1420,208L1408,199L1368,192 M1448,725L1434,736L1430,752L1433,760L1448,773L1464,780L1488,782L1504,778L1517,768L1521,760L1520,746L1513,736L1504,729L1472,720L1448,725"/>
  <path d="M0,106L9,136L32,166L56,187L117,232L144,258L160,280L204,360L240,400L272,422L304,437L352,451L400,458L456,458L516,448L585,424L650,392L672,376L694,352L703,328L710,288L724,264L745,248L824,211L842,192L845,176L837,160L817,144L784,131L744,121L680,110L584,101L336,89L288,77L184,37L128,26L80,27L40,41L13,64L4,80L0,96 M1312,239L1218,264L1008,290L968,298L936,309L903,328L882,352L875,368L873,384L880,416L899,448L928,476L963,496L1009,512L1080,526L1144,530L1192,526L1242,512L1287,488L1329,456L1359,424L1374,392L1374,360L1349,288L1346,240L1336,236L1312,239"/>
  <path d="M72,39L37,56L18,80L13,96L14,112L28,144L60,176L132,224L160,248L178,272L221,352L256,391L280,408L304,420L360,437L424,443L480,438L544,420L602,392L636,368L654,344L661,328L674,272L690,248L720,228L787,200L800,191L808,176L801,160L784,149L749,136L712,128L640,119L536,110L328,106L288,95L206,56L160,41L112,34L72,39 M1152,288L1072,294L1016,302L976,313L943,328L916,352L905,376L903,400L914,432L936,459L968,481L1016,501L1072,513L1128,518L1176,516L1224,504L1264,486L1312,449L1339,416L1349,384L1348,368L1340,344L1312,309L1280,291L1232,285L1152,288"/>
  <path d="M104,55L71,64L58,72L48,83L43,96L42,112L53,136L67,152L89,168L175,208L198,224L216,248L241,312L266,352L281,368L304,384L328,396L360,406L408,411L456,407L506,392L552,367L570,352L588,328L617,240L632,218L662,184L665,176L661,168L648,160L624,153L536,139L464,136L336,145L296,142L264,129L211,88L183,72L144,59L104,55 M1064,320L1024,328L988,344L968,360L955,384L954,408L964,432L988,456L1024,475L1064,486L1104,492L1144,493L1184,488L1224,473L1251,456L1276,432L1290,408L1292,384L1286,368L1264,344L1240,331L1200,320L1160,316L1112,315L1064,320"/>
  <path d="M88,72L72,80L60,96L59,112L71,136L89,152L120,168L152,179L216,191L232,200L240,216L255,288L268,320L292,352L325,376L352,386L384,393L424,393L456,387L489,376L519,360L539,344L558,320L568,296L596,200L595,184L588,176L576,169L528,156L464,153L408,157L304,173L264,173L248,164L212,112L176,84L152,73L128,68L104,68L88,72 M1056,335L1026,344L1000,359L984,376L978,392L981,416L990,432L1008,448L1038,464L1072,474L1104,479L1136,480L1168,476L1200,466L1224,453L1248,432L1258,416L1262,392L1256,376L1242,360L1213,344L1176,334L1136,329L1096,330L1056,335"/>
  <path d="M96,87L84,96L80,112L87,128L104,142L128,153L152,157L176,153L187,144L190,136L186,120L174,104L163,96L148,88L128,83L112,83L96,87 M416,176L368,185L320,202L296,218L283,240L280,256L280,280L286,304L294,320L320,349L337,360L360,369L384,373L416,374L447,368L472,359L498,344L516,328L532,304L541,280L550,216L546,200L540,192L520,181L496,175L456,173L416,176 M1056,352L1035,360L1016,374L1009,384L1005,400L1008,416L1020,432L1056,453L1109,464L1160,460L1200,444L1215,432L1226,416L1229,400L1224,384L1208,368L1184,356L1152,347L1120,344L1088,346L1056,352"/>
  <path d="M416,239L384,248L368,261L361,272L359,288L361,296L376,311L392,316L416,314L438,304L452,288L457,272L454,256L440,243L416,239"/>
    </g>
    <g stroke="#88aacc" stroke-width="1.5">
  <path d="M1340,0L1302,40L1280,56L1250,72L1176,99L1144,106L1112,110L1088,108L1064,102L976,65L835,24L787,0 M0,546L72,610L167,664L190,680L214,704L248,750L264,765L280,775L304,783L352,785L384,776L400,762L440,710L458,696L488,683L512,677L544,675L568,679L587,688L599,704L602,720L599,744L588,768L570,784L552,793L464,816L440,827L424,848L406,904 M654,904L668,872L688,849L760,801L816,748L848,727L872,718L912,709L1072,687L1128,683L1183,688L1200,694L1217,704L1235,728L1261,808L1280,844L1308,872L1358,904 M205,904L189,872L176,858L161,848L128,836L40,815L16,801L0,783"/>
  <path d="M0,260L13,288L42,368L62,400L95,440L136,480L168,503L204,520L248,533L384,559L464,565L536,556L656,521L712,516L760,527L864,576L904,587L944,592L1104,604L1192,606L1264,598L1312,582L1344,564L1470,480L1497,456L1514,432L1527,392L1535,312L1544,288L1568,240L1575,216L1574,192L1568,177L1544,149L1512,131L1472,119L1432,114L1384,114L1336,121L1280,135L1120,190L1088,196L1056,195L1032,189L1016,181L952,128L896,99L640,20L554,0 M1608,717L1576,688L1536,666L1488,653L1432,650L1392,657L1360,674L1347,688L1338,704L1331,736L1337,768L1345,784L1360,802L1400,831L1448,850L1504,862L1544,861L1578,848L1592,838L1608,820"/>
  <path d="M0,165L103,264L119,288L164,368L196,408L237,440L288,464L336,478L392,488L440,492L480,490L544,477L712,421L744,414L768,413L792,418L808,427L880,488L905,504L936,519L1016,540L1128,554L1200,550L1256,535L1320,501L1387,448L1407,424L1420,400L1426,368L1423,320L1425,296L1435,272L1461,232L1465,216L1460,200L1440,184L1408,175L1360,173L1296,187L1193,232L1138,248L1040,260L944,259L920,253L906,240L903,184L897,168L885,152L848,128L772,104L696,89L616,78L336,54L288,45L184,15L128,6L88,6L56,12L24,25L0,42 M1464,704L1432,711L1411,728L1407,736L1405,752L1416,772L1440,790L1472,799L1504,798L1520,793L1534,784L1541,776L1547,760L1545,744L1536,730L1524,720L1504,710L1464,704"/>
  <path d="M88,47L56,58L33,80L27,96L27,112L40,140L72,171L150,216L180,240L197,264L232,336L264,376L304,403L360,422L416,427L464,423L520,408L570,384L602,360L620,336L640,264L656,238L680,218L733,192L753,176L753,168L745,160L729,152L696,143L624,132L496,122L352,126L312,122L272,108L211,72L175,56L128,45L88,47 M1096,304L1040,311L1000,321L967,336L940,360L929,384L928,400L932,416L939,432L951,448L984,472L1024,489L1080,502L1128,506L1176,503L1216,493L1257,472L1288,448L1313,416L1320,400L1322,384L1315,360L1297,336L1273,320L1248,310L1208,303L1160,301L1096,304"/>
  <path d="M424,200L384,208L352,221L328,239L317,256L312,280L317,304L334,328L352,340L368,347L392,351L416,350L440,344L472,327L488,312L498,296L507,272L509,248L507,232L498,216L488,208L472,202L448,199L424,200 M1080,367L1064,372L1048,382L1040,392L1038,400L1043,416L1064,433L1096,443L1136,444L1168,433L1186,416L1188,400L1185,392L1167,376L1128,365L1080,367"/>
    </g>
  </g>
</svg>